<svg xmlns="http://www.w3.org/2000/svg" width="28" height="31">
    <path fill="#0E7086" fill-rule="evenodd" d="M26.552 31H1.448C.648 31 0 30.35 0 29.547V4.36a1.45 1.45 0 0 1 1.448-1.454h2.414V4.36a2.901 2.901 0 0 0 2.897 2.906A2.901 2.901 0 0 0 9.655 4.36V2.906h1.449V4.36A2.9 2.9 0 0 0 14 7.266c1.6 0 2.897-1.301 2.897-2.906V2.906h1.448V4.36a2.901 2.901 0 0 0 2.896 2.906c1.6 0 2.897-1.301 2.897-2.906V2.906h2.414c.8 0 1.448.651 1.448 1.454v25.187A1.45 1.45 0 0 1 26.552 31zM22.69 11.141H5.31a1.45 1.45 0 0 0-1.448 1.453c0 .802.649 1.453 1.448 1.453h17.38c.8 0 1.448-.651 1.448-1.453a1.45 1.45 0 0 0-1.448-1.453zm0 6.297H5.31a1.45 1.45 0 0 0-1.448 1.453c0 .802.649 1.453 1.448 1.453h17.38c.8 0 1.448-.651 1.448-1.453a1.45 1.45 0 0 0-1.448-1.453zm.241 6.296H5.069a1.21 1.21 0 0 0-1.207 1.212c0 .668.54 1.21 1.207 1.21h17.862c.667 0 1.207-.542 1.207-1.21a1.21 1.21 0 0 0-1.207-1.212zm-1.69-17.921a1.451 1.451 0 0 1-1.448-1.453V1.453c0-.802.649-1.453 1.448-1.453.8 0 1.449.651 1.449 1.453V4.36c0 .802-.649 1.453-1.449 1.453zm-7.241 0a1.45 1.45 0 0 1-1.448-1.453V1.453A1.45 1.45 0 0 1 14 0c.8 0 1.448.651 1.448 1.453V4.36A1.45 1.45 0 0 1 14 5.813zm-7.241 0c-.8 0-1.449-.651-1.449-1.453V1.453C5.31.651 5.959 0 6.759 0c.799 0 1.448.651 1.448 1.453V4.36c0 .802-.649 1.453-1.448 1.453z"/>
</svg>
