<svg xmlns="http://www.w3.org/2000/svg" width="41" height="40">
    <path fill="#0E7086" fill-rule="evenodd" d="M34.57 34.14a19.677 19.677 0 0 1-14.002 5.795A19.68 19.68 0 0 1 6.567 34.14 19.638 19.638 0 0 1 .768 20.15 19.65 19.65 0 0 1 6.567 6.158 19.67 19.67 0 0 1 20.568.361c5.29 0 10.261 2.058 14.002 5.797a19.642 19.642 0 0 1 5.799 13.992 19.643 19.643 0 0 1-5.799 13.99zM20.568 2.444c-9.768 0-17.715 7.942-17.715 17.704S10.8 37.852 20.568 37.852c9.769 0 17.716-7.942 17.716-17.704S30.337 2.444 20.568 2.444zm10.159 26.727a1.042 1.042 0 0 1-1.471.087l-8.688-7.717-8.687 7.717a1.045 1.045 0 0 1-1.471-.087 1.043 1.043 0 0 1 .088-1.471l8.503-7.552-8.504-7.552a1.042 1.042 0 0 1 1.384-1.558l8.687 7.717 8.688-7.717a1.042 1.042 0 1 1 1.383 1.558l-8.503 7.552 8.503 7.552c.432.383.469 1.042.088 1.471z"/>
</svg>
