<svg xmlns="http://www.w3.org/2000/svg" width="28" height="29">
    <path fill="#0E7086" fill-rule="evenodd" d="M28.005 15.852a2.29 2.29 0 0 1-.673 1.627l-9.855 9.86a.393.393 0 0 1-.141.089l-4.251 1.547a.383.383 0 0 1-.406-.09.386.386 0 0 1-.09-.405l1.546-4.253a.39.39 0 0 1 .09-.142l9.855-9.86a2.283 2.283 0 0 1 1.626-.673c.614 0 1.192.239 1.626.673v-.001a2.29 2.29 0 0 1 .673 1.628zm-13.173 8.72l-1.233 3.394 3.392-1.234 8.555-8.56-2.159-2.16-8.555 8.56zm11.952-9.8a1.518 1.518 0 0 0-1.079-.447c-.407 0-.791.159-1.079.447l-.693.693 2.159 2.16.693-.693-.001-.001c.288-.288.447-.672.447-1.079 0-.408-.159-.792-.447-1.08zm-4.839-5.999h-5.118a2.197 2.197 0 0 1-2.194-2.193V1.463H2.203a.73.73 0 0 0-.731.731v23.393c0 .403.327.731.731.731h8.256v1.462H2.203a2.197 2.197 0 0 1-2.194-2.193V2.194C.009.985.994.001 2.203.001h13.893a.73.73 0 0 1 .517.213l6.581 6.58a.735.735 0 0 1 .214.517v4.14h-1.463V8.773zm-5.849-7.008V6.58a.73.73 0 0 0 .731.731h4.816l-5.547-5.546zM4.133 12.345c0-.402.325-.729.724-.729h11.578c.4 0 .724.327.724.729a.726.726 0 0 1-.724.728H4.857a.727.727 0 0 1-.724-.728zm10.198 5.099H4.857a.727.727 0 0 1-.724-.728c0-.402.325-.729.724-.729h9.474c.399 0 .723.327.723.729a.726.726 0 0 1-.723.728zm-9.474 4.371a.727.727 0 0 1-.724-.728c0-.402.325-.729.724-.729h5.264c.399 0 .723.327.723.729a.726.726 0 0 1-.723.728H4.857z"/>
</svg>
