<svg xmlns="http://www.w3.org/2000/svg" width="94" height="108">
    <defs>
        <filter id="a">
            <feFlood flood-color="#0E7086" flood-opacity="1" result="floodOut"/>
            <feComposite in="floodOut" in2="SourceGraphic" operator="atop" result="compOut"/>
            <feBlend in="compOut" in2="SourceGraphic" mode="multiply"/>
        </filter>
    </defs>
    <g fill="#FFF" fill-rule="evenodd" filter="url(#a)">
        <path d="M92.887 65.52c-.26.54-.8.884-1.393.884h-7.369v16.211c0 3.04-2.447 5.512-5.455 5.512H63.443c-1.745 4.501-5.124 14.224-4.753 18.163.043.455-.114.908-.429 1.236a1.543 1.543 0 0 1-1.109.474c-.034 0-.068 0-.105-.003-16.425-1.071-38.045-10.793-41.708-15.113a1.577 1.577 0 0 1-.278-1.551c4.652-12.87 5.178-26.152 1.61-40.6a35.154 35.154 0 0 1-1.7-10.832C14.971 20.656 30.463 5 49.508 5c19.037 0 34.524 15.644 34.536 34.88 0 .007.003.012.003.018 0 4.545 6.9 21.755 8.655 23.971.37.468.441 1.111.185 1.651zM80.96 39.925c0-.008-.004-.015-.004-.024 0-17.522-14.109-31.78-31.448-31.78-17.34 0-31.448 14.258-31.448 31.777 0 3.409.528 6.758 1.572 9.951.007.02.001.041.007.062.005.018.019.031.024.05 3.644 14.723 3.2 28.306-1.359 41.487 4.287 3.615 22.46 11.83 37.304 13.297.423-6.371 4.809-17.408 5.355-18.765.238-.59.803-.974 1.43-.974H78.67c1.307 0 2.366-1.074 2.366-2.391V64.843c0-.861.692-1.561 1.544-1.561h6.23c-2.978-5.947-7.831-19.108-7.85-23.357z"/>
        <path d="M48.652 26.16h-2.659a1.342 1.342 0 0 1-1.347-1.338c0-.739.603-1.338 1.347-1.338h2.659c.745 0 1.348.599 1.348 1.338 0 .739-.603 1.338-1.348 1.338zm-5.46 18.074a1.35 1.35 0 0 1-.953-.392l-1.88-1.867a1.331 1.331 0 0 1 0-1.892 1.354 1.354 0 0 1 1.906 0l1.88 1.867a1.331 1.331 0 0 1 0 1.892 1.35 1.35 0 0 1-.953.392zm-2.394-33.205a1.349 1.349 0 0 1-.953.392c-.345 0-.69-.13-.954-.392a1.331 1.331 0 0 1 0-1.892l1.881-1.867a1.356 1.356 0 0 1 1.906 0c.526.523.526 1.37 0 1.893l-1.88 1.866zm-4.163 27.949c-2.006 2.796-3.067 5.907-3.067 8.996v8.899c0 1.475-1.209 2.676-2.695 2.676h-.859v1.106c0 1.844-1.511 3.345-3.369 3.345h-3.289c-1.858 0-3.37-1.501-3.37-3.345v-1.106h-.859c-1.486 0-2.695-1.201-2.695-2.676v-8.899c0-3.089-1.06-6.199-3.067-8.996-2.639-3.679-4.153-8.196-4.153-12.394 0-9.038 7.082-16.392 15.788-16.392 8.705 0 15.788 7.354 15.788 16.392 0 4.198-1.513 8.715-4.153 12.394zM22.681 60.654c0 .369.303.67.674.67h3.29a.673.673 0 0 0 .674-.67v-1.105h-4.638v1.105zm-3.554-8.483H25c.744 0 1.348.6 1.348 1.339 0 .738-.604 1.338-1.348 1.338h-5.873v2.025h11.747l-.001-6.727H19.127v2.025zm3.419-17.916V47.47h4.908V34.255h-4.908zm4.071-2.409l-1.616-2.921-1.616 2.921h3.232zM25 12.868c-7.219 0-13.093 6.153-13.093 13.716 0 3.6 1.366 7.653 3.653 10.841 2.226 3.103 3.451 6.565 3.559 10.045h1.001V33.05l.003-.012c.002-.195.05-.391.148-.568l3.667-6.626c.213-.385.62-.624 1.063-.624.443 0 .85.239 1.063.624l3.666 6.627c.098.178.147.375.148.572l.001.007v14.42h1.001c.108-3.48 1.333-6.942 3.56-10.045 2.287-3.188 3.653-7.241 3.652-10.841 0-7.563-5.873-13.716-13.092-13.716zm0 6.067c-3.85 0-6.982 3.432-6.982 7.65 0 .739-.604 1.338-1.348 1.338a1.343 1.343 0 0 1-1.348-1.338c0-5.694 4.342-10.326 9.678-10.326.744 0 1.348.599 1.348 1.338 0 .739-.604 1.338-1.348 1.338zm0-13.619a1.343 1.343 0 0 1-1.348-1.338v-2.64C23.652.599 24.256 0 25 0c.744 0 1.348.599 1.348 1.338v2.64c0 .739-.604 1.338-1.348 1.338zm-14.844 6.105c-.345 0-.69-.13-.954-.392l-1.88-1.866a1.333 1.333 0 0 1 0-1.893 1.356 1.356 0 0 1 1.906 0l1.88 1.867a1.33 1.33 0 0 1 .001 1.892 1.353 1.353 0 0 1-.953.392zm-.52 28.668c.526.523.526 1.37 0 1.893l-1.88 1.867a1.351 1.351 0 0 1-1.906 0 1.33 1.33 0 0 1 0-1.893l1.88-1.867a1.356 1.356 0 0 1 1.906 0zM4.007 26.16H1.348A1.343 1.343 0 0 1 0 24.822c0-.739.603-1.338 1.348-1.338h2.658c.745 0 1.348.599 1.348 1.338 0 .739-.603 1.338-1.347 1.338z"/>
    </g>
</svg>
