<svg xmlns="http://www.w3.org/2000/svg" width="40" height="36">
    <path fill="#0E7086" fill-rule="evenodd" d="M1.203 35.49a1.042 1.042 0 0 1-.536-1.935 12.937 12.937 0 0 0 5.505-6.621C2.341 24.004.161 19.948.161 15.704c0-2.143.538-4.22 1.601-6.174C2.775 7.668 4.221 6 6.057 4.571 9.782 1.676 14.719.08 19.961.08c5.242 0 10.179 1.596 13.904 4.491 1.836 1.427 3.283 3.095 4.296 4.959 1.063 1.952 1.6 4.028 1.6 6.174 0 2.145-.537 4.219-1.6 6.173-1.013 1.862-2.46 3.53-4.296 4.959-3.725 2.895-8.662 4.491-13.904 4.491-2.153 0-4.266-.269-6.286-.802a43.14 43.14 0 0 1-4.562 2.645c-3.102 1.541-5.761 2.323-7.908 2.323l-.002-.003zM19.961 2.165c-9.769 0-17.716 6.074-17.716 13.539 0 3.78 2.095 7.419 5.744 9.981.359.251.521.699.409 1.122-.244.908-1.074 3.401-3.293 5.807 2.713-.95 5.635-2.597 7.793-4.08a1.04 1.04 0 0 1 .877-.144c1.976.565 4.058.852 6.186.852 9.769 0 17.716-6.074 17.716-13.538 0-7.465-7.947-13.539-17.716-13.539z"/>
    <text fill="#0E7086" font-family="Source Sans Pro" font-size="30" transform="translate(16.05 22.438) scale(.6438)">
        ?
    </text>
</svg>
