<svg xmlns="http://www.w3.org/2000/svg" width="33" height="44">
    <path fill="#0E7086" fill-rule="evenodd" d="M32.61 10.612l-2.29 1.314a.685.685 0 0 1-.929-.249.675.675 0 0 1 .251-.923l2.29-1.313a.675.675 0 1 1 .678 1.171zm-6.302 15.872c-1.253 1.702-2.269 2.82-3.058 3.689-1.421 1.561-2.043 2.245-2.043 4.528a.68.68 0 0 1-.683.678H12.536a.682.682 0 0 1-.684-.678c0-2.261-.636-2.952-2.046-4.487l-.002-.002-.001.002c-.797-.868-1.824-1.985-3.108-3.73a12.026 12.026 0 0 1-1.739-3.372 12.005 12.005 0 0 1 .326-8.354l.013-.027a12.066 12.066 0 0 1 2.623-3.89 12.156 12.156 0 0 1 3.942-2.617v-.001a12.16 12.16 0 0 1 4.644-.917 12.158 12.158 0 0 1 8.582 3.535 11.989 11.989 0 0 1 3.557 8.531 11.982 11.982 0 0 1-2.335 7.112zM24.873 6.015a.684.684 0 0 1-.928.248.674.674 0 0 1-.25-.922l1.322-2.276a.684.684 0 0 1 .928-.249.673.673 0 0 1 .25.923l-1.322 2.276zm-8.372-1.731a.68.68 0 0 1-.683-.678V.978A.68.68 0 0 1 16.501.3a.68.68 0 0 1 .682.678v2.628a.68.68 0 0 1-.682.678zM9.055 6.263a.683.683 0 0 1-.927-.248L6.806 3.739a.674.674 0 0 1 .25-.921.684.684 0 0 1 .929.248l1.32 2.276a.671.671 0 0 1-.25.921zm-6.373 5.663L.391 10.612a.672.672 0 0 1-.251-.921.682.682 0 0 1 .928-.249l2.29 1.312a.675.675 0 1 1-.676 1.172zm9.852 25.037h7.933a.68.68 0 0 1 .683.678.68.68 0 0 1-.683.678h-7.933a.682.682 0 0 1-.684-.678.68.68 0 0 1 .684-.678zm.882 2.691h6.17a.68.68 0 0 1 .682.678.68.68 0 0 1-.682.678h-6.17a.68.68 0 0 1-.683-.678c0-.374.307-.678.683-.678zm.881 2.69h4.407a.68.68 0 0 1 .683.678.68.68 0 0 1-.683.678h-4.407a.68.68 0 0 1-.682-.678.68.68 0 0 1 .682-.678zm10.968-16.432c-1.119 1.527-2.028 1.83-2.733 2.609-1.269 1.401-2.526 3.415-2.526 5.463a.609.609 0 0 1-.61.608H13.657a.61.61 0 0 1-.611-.608c0-2.028-1.268-4.048-2.528-5.426l-.002-.001-.001.001c-.713-.778-1.63-1.081-2.777-2.646a10.76 10.76 0 0 1-2.088-6.381c0-1.463.293-2.862.825-4.14l.011-.024a10.823 10.823 0 0 1 2.344-3.49 10.864 10.864 0 0 1 3.523-2.348v-.001a10.836 10.836 0 0 1 4.15-.823c1.464 0 2.865.293 4.147.823a10.893 10.893 0 0 1 3.524 2.349 10.78 10.78 0 0 1 3.179 7.654 10.795 10.795 0 0 1-2.088 6.381z"/>
</svg>
