<svg xmlns="http://www.w3.org/2000/svg" width="173" height="152">
    <path fill="#0E7086" fill-rule="evenodd" d="M172.451 72.382l-10.775 11.023a1.858 1.858 0 0 1-2.644.044l-11.039-10.758-.022-.022c-.727-.726-.749-1.892-.022-2.618a1.858 1.858 0 0 1 2.644-.044l7.8 7.612-.044-2.949c-.197-19.163-7.865-37.115-21.614-50.491-13.727-13.398-31.861-20.68-51.053-20.437-27.764.309-52.378 16.085-64.255 41.145-.441.924-1.565 1.342-2.49.902a1.389 1.389 0 0 1-.529-.352 1.857 1.857 0 0 1-.353-2.112 75.89 75.89 0 0 1 27.06-31.023C57.169 4.403 71.161.156 85.638.002c20.184-.221 39.265 7.39 53.697 21.493 14.455 14.08 22.519 32.956 22.76 53.131l.044 2.948 7.624-7.788a1.859 1.859 0 0 1 2.645-.044l.022.022c.727.726.749 1.892.021 2.618zM25.039 80.968a1.858 1.858 0 0 1-2.645.045l-7.799-7.612.043 2.948c.198 19.163 7.887 37.093 21.614 50.491 13.727 13.398 31.84 20.658 51.054 20.437 27.742-.331 52.355-16.107 64.211-41.189.441-.924 1.565-1.342 2.49-.902.925.44 1.344 1.562.903 2.486a76.157 76.157 0 0 1-27.038 31.045c-12.053 7.899-26.067 12.124-40.522 12.3-20.184.221-39.266-7.39-53.698-21.492l-.639-.638c-14.035-14.015-21.879-32.627-22.12-52.494l-.044-2.948-7.625 7.788a1.858 1.858 0 0 1-2.644.045l-.022-.022c-.727-.727-.749-1.893-.022-2.619l10.776-11.023a1.858 1.858 0 0 1 2.644-.044l11.039 10.758c.749.748.771 1.914.044 2.64z"/>
</svg>
