<svg xmlns="http://www.w3.org/2000/svg" width="50" height="35">
    <defs>
        <filter id="a">
            <feFlood flood-color="#0E7086" flood-opacity="1" result="floodOut"/>
            <feComposite in="floodOut" in2="SourceGraphic" operator="atop" result="compOut"/>
            <feBlend in="compOut" in2="SourceGraphic"/>
        </filter>
    </defs>
    <g fill="#FFF" fill-rule="evenodd" filter="url(#a)">
        <path d="M20.806 34.994c-2.304 0-4.755-.653-7.285-1.94-2.333-1.187-4.637-2.886-6.664-4.914-2.026-2.028-3.724-4.333-4.91-6.665C.661 18.945.008 16.496.008 14.194c0-1.493 1.392-2.935 1.989-3.484.86-.792 2.213-1.716 3.197-1.716.489 0 1.061.319 1.804 1.006.553.512 1.176 1.206 1.799 2.007.376.484 2.251 2.952 2.251 4.137 0 .971-1.1 1.647-2.263 2.36-.45.276-.914.562-1.25.831-.359.287-.423.44-.433.473 1.235 3.076 5.008 6.847 8.085 8.08.027-.009.18-.069.472-.433.27-.335.556-.801.832-1.249.715-1.163 1.39-2.261 2.362-2.261 1.185 0 3.655 1.873 4.139 2.249.802.623 1.496 1.245 2.009 1.798.687.741 1.007 1.314 1.007 1.803 0 .983-.925 2.339-1.716 3.202-.552.6-1.994 1.998-3.488 1.998l.002-.001zm-15.619-24.7c-.348.006-1.286.433-2.306 1.371-.968.892-1.571 1.86-1.571 2.529 0 8.747 10.751 19.5 19.496 19.5.667 0 1.636-.605 2.528-1.577.941-1.025 1.368-1.966 1.374-2.316-.041-.247-.726-1.207-2.598-2.648-1.609-1.237-2.914-1.902-3.249-1.909-.024.006-.169.062-.465.437-.256.326-.53.772-.797 1.203-.729 1.185-1.417 2.304-2.417 2.304-.161 0-.32-.031-.472-.093-3.415-1.364-7.453-5.4-8.819-8.812-.164-.41-.19-1.052.617-1.783.429-.388 1.022-.752 1.597-1.106.432-.265.879-.539 1.205-.797.374-.295.43-.44.437-.464-.009-.335-.673-1.639-1.911-3.247-1.442-1.871-2.403-2.553-2.65-2.596l.001.004zM46.691 25.645H28v-2.083h18.691c.575 0 1.042-.467 1.042-1.041V4.679L32.329 14.941c-.648.431-1.48.648-2.312.648-.831 0-1.663-.217-2.311-.648L12.301 4.679V7h-2.084V3.775A3.13 3.13 0 0 1 13.343.651h33.348a3.129 3.129 0 0 1 3.126 3.124v18.746a3.129 3.129 0 0 1-3.126 3.124zm0-22.911H13.345a.983.983 0 0 0-.181.017l15.699 10.457c.604.402 1.707.402 2.311 0L46.872 2.751a.983.983 0 0 0-.181-.017z"/>
    </g>
</svg>
