<svg xmlns="http://www.w3.org/2000/svg" width="35" height="38">
    <defs>
        <filter id="a">
            <feFlood flood-color="#0E7086" flood-opacity="1" result="floodOut"/>
            <feComposite in="floodOut" in2="SourceGraphic" operator="atop" result="compOut"/>
            <feBlend in="compOut" in2="SourceGraphic"/>
        </filter>
    </defs>
    <g fill="#FFF" fill-rule="evenodd" filter="url(#a)">
        <path d="M32.316 12.669c-.006-.013-.006-.026-.013-.039-.007-.012-.018-.019-.026-.03a16.533 16.533 0 0 0-2.146-2.918l1.293-1.302.851.857 2.553-2.574-2.553-2.573-2.554 2.573.852.859-1.293 1.302a16.391 16.391 0 0 0-2.895-2.163c-.011-.008-.018-.019-.03-.027-.013-.007-.026-.006-.039-.013a16.048 16.048 0 0 0-6.183-2.065v-.723h.902c.831 0 1.505-.68 1.505-1.516C22.54 1.48 21.865.8 21.035.8h-5.418c-.83 0-1.504.68-1.504 1.517 0 .836.674 1.516 1.504 1.516h.903v.702c-.65.07-1.299.176-1.94.324a.607.607 0 0 0 .269 1.183 15.2 15.2 0 0 1 1.673-.29l.646-.05c.197-.015.379-.026.556-.035v1.2c0 .335.269.606.602.606a.603.603 0 0 0 .602-.606V5.672c2.264.104 4.397.717 6.294 1.725l-.594 1.036a.61.61 0 0 0 .221.829.601.601 0 0 0 .822-.222l.592-1.033a15.22 15.22 0 0 1 4.678 4.715l-1.025.596a.609.609 0 0 0 .303 1.132.593.593 0 0 0 .3-.081l1.028-.598a15.15 15.15 0 0 1 1.715 6.442h-1.189a.603.603 0 0 0-.602.606c0 .336.269.607.602.607h1.189a15.154 15.154 0 0 1-1.715 6.442l-1.028-.598a.599.599 0 0 0-.822.222.61.61 0 0 0 .22.829l1.025.596a15.22 15.22 0 0 1-4.678 4.715l-.592-1.033a.598.598 0 0 0-.822-.222.609.609 0 0 0-.22.829l.593 1.035a14.833 14.833 0 0 1-6.294 1.726v-1.194a.603.603 0 0 0-.602-.606.604.604 0 0 0-.602.606v1.199a15.089 15.089 0 0 1-2.874-.374.607.607 0 0 0-.27 1.182c1.202.279 2.429.42 3.647.42l.087-.002.011.002c.005 0 .009-.003.014-.003a16.052 16.052 0 0 0 7.957-2.168c.019-.008.039-.012.057-.023.012-.008.018-.019.03-.027a16.435 16.435 0 0 0 5.883-5.922c.011-.016.025-.029.036-.047.007-.013.006-.026.012-.039a16.357 16.357 0 0 0 2.165-8.151c0-2.967-.79-5.749-2.164-8.151zm-.042-6.863l.852.857-.852.859-.851-.859.851-.857zm-14.55-1.353V2.62h-2.107a.304.304 0 0 1 0-.607h5.418a.303.303 0 0 1 0 .607h-2.107v1.833a13.964 13.964 0 0 0-.602-.013l-.053.001-.045-.001c-.099 0-.197.007-.296.009-.07.001-.136.001-.208.004z"/>
        <path d="M20.981 10.685c-5.861 7.711-5.438 7.157-5.491 7.219v5.223l2.264-.034a1.129 1.129 0 0 1 1.114 1.349l-1.214 6.305a1.118 1.118 0 0 1-1.311.894c-.605-.119-1-.714-.882-1.328l.95-4.935c-3.743.057-.065.009-3.816.009l-1.129 2.763 1.293 5.19a1.133 1.133 0 0 1-.81 1.375 1.116 1.116 0 0 1-1.357-.82l-1.384-5.554a1.147 1.147 0 0 1 .051-.711l1.299-3.176v-6.397l-3.289-1.096a.94.94 0 0 1-.501-.4l-2.207-3.617a.95.95 0 0 1 .303-1.298.923.923 0 0 1 1.281.306l2.028 3.323 3.21 1.07h2.945l5.178-6.812a.923.923 0 0 1 1.306-.171c.407.318.483.91.169 1.323zm-7.947 5.037c-1.065 0-1.93-.875-1.93-1.956 0-1.08.864-1.955 1.93-1.955 1.066 0 1.93.876 1.93 1.955 0 1.084-.869 1.956-1.93 1.956zm-6.547-4.785a1.854 1.854 0 0 0-2.119-.103 1.913 1.913 0 0 0-.608 2.613l1.329 2.177c-.235.173-.54.244-.844.168l-3.301-.835a1.03 1.03 0 0 1-.739-1.247l1.264-5.131A1.014 1.014 0 0 1 2.7 7.831l3.3.834c.544.138.875.696.739 1.248l-.252 1.024zM3.195 9.246c-.008-.104-.121-.18-.247-.209-.126-.03-.261-.011-.313.079l-.894 1.579a.119.119 0 0 0-.013.029c-.023.103.116.215.235.242.068.016.128.007.158-.048l.172-.326.579.134.015.37c.003.062.053.097.122.113.118.027.291-.011.315-.114l.001-.032-.13-1.817zm1.205.067l-.231-.054.052-.234c.014-.058-.033-.131-.125-.152-.086-.02-.167.023-.18.081l-.053.234-.233-.054c-.068-.015-.129.042-.149.13-.021.093.011.164.078.18l.234.054-.054.237c-.015.068.042.13.129.15.091.021.162-.011.177-.079l.054-.237.231.054c.058.013.129-.034.15-.127.02-.088-.023-.17-.08-.183zm-1.575.266l.032.792-.401-.093.369-.699z"/>
    </g>
</svg>
