<svg xmlns="http://www.w3.org/2000/svg" width="104" height="103">
    <defs>
        <filter id="a">
            <feFlood flood-color="#0E7086" flood-opacity="1" result="floodOut"/>
            <feComposite in="floodOut" in2="SourceGraphic" operator="atop" result="compOut"/>
            <feBlend in="compOut" in2="SourceGraphic" mode="multiply"/>
        </filter>
    </defs>
    <g fill="#FFF" fill-rule="evenodd" filter="url(#a)">
        <path d="M102.887 60.52c-.26.54-.8.884-1.393.884h-7.369v16.211c0 3.04-2.447 5.512-5.455 5.512H73.443c-1.745 4.501-5.124 14.224-4.753 18.163.043.455-.114.908-.429 1.236a1.543 1.543 0 0 1-1.109.474c-.034 0-.068 0-.105-.003-16.425-1.071-38.045-10.793-41.708-15.113a1.577 1.577 0 0 1-.278-1.551c4.652-12.87 5.178-26.152 1.61-40.6a35.154 35.154 0 0 1-1.7-10.832C24.971 15.656 40.463 0 59.508 0c19.037 0 34.524 15.645 34.536 34.88 0 .007.003.012.003.018 0 4.545 6.9 21.755 8.655 23.971.37.468.441 1.111.185 1.651zM90.96 34.925c0-.008-.004-.015-.004-.024 0-17.522-14.109-31.78-31.448-31.78-17.34 0-31.448 14.258-31.448 31.777 0 3.409.528 6.758 1.572 9.951.007.02.001.041.007.062.005.018.019.031.024.05 3.644 14.723 3.2 28.306-1.359 41.487 4.287 3.615 22.46 11.83 37.304 13.297.423-6.371 4.809-17.407 5.355-18.765.238-.59.803-.974 1.43-.974H88.67c1.307 0 2.366-1.074 2.366-2.391V59.843c0-.861.692-1.561 1.544-1.561h6.23c-2.978-5.947-7.831-19.108-7.85-23.357z"/>
        <path d="M36.988 39.592l-2.737.457a15.378 15.378 0 0 1-1.1 2.655l1.613 2.264a2.408 2.408 0 0 1-.26 3.102l-2.428 2.428a2.391 2.391 0 0 1-1.703.708c-.505 0-.993-.155-1.401-.448l-2.256-1.612c-.848.447-1.736.814-2.656 1.099l-.464 2.737a2.407 2.407 0 0 1-2.379 2.011h-3.438a2.407 2.407 0 0 1-2.379-2.011l-.456-2.737a15.396 15.396 0 0 1-2.574-1.059l-2.289 1.629a2.37 2.37 0 0 1-1.393.448 2.388 2.388 0 0 1-1.703-.709l-2.428-2.426a2.4 2.4 0 0 1-.26-3.103l1.604-2.232a15.156 15.156 0 0 1-1.116-2.647l-2.769-.472a2.406 2.406 0 0 1-2.012-2.378v-3.429c0-1.181.847-2.183 2.012-2.378l2.704-.456c.277-.92.636-1.808 1.084-2.663l-1.63-2.289a2.41 2.41 0 0 1 .261-3.103l2.436-2.427a2.378 2.378 0 0 1 1.703-.708c.505 0 .993.155 1.401.448l2.24 1.612c.847-.456 1.735-.83 2.648-1.115l.472-2.769a2.407 2.407 0 0 1 2.379-2.012h3.43c1.181 0 2.183.847 2.378 2.012l.456 2.703c.954.285 1.874.668 2.754 1.132l2.265-1.612a2.368 2.368 0 0 1 1.393-.448c.643 0 1.246.252 1.702.709l2.428 2.426c.839.831.945 2.142.261 3.103l-1.613 2.256a15.45 15.45 0 0 1 1.099 2.655l2.738.465a2.377 2.377 0 0 1 1.996 2.378v3.428a2.406 2.406 0 0 1-2.013 2.378zm-.163-5.806a.21.21 0 0 0-.179-.212l-3.421-.578a1.082 1.082 0 0 1-.88-.807 13.034 13.034 0 0 0-1.418-3.412 1.1 1.1 0 0 1 .049-1.197l2.012-2.826a.221.221 0 0 0-.024-.277l-2.428-2.427a.217.217 0 0 0-.154-.065.248.248 0 0 0-.123.04l-2.81 2.02a1.101 1.101 0 0 1-1.198.049 13.209 13.209 0 0 0-3.494-1.433 1.1 1.1 0 0 1-.815-.888l-.57-3.396a.211.211 0 0 0-.212-.179h-3.43a.211.211 0 0 0-.212.179l-.586 3.445a1.115 1.115 0 0 1-.807.879c-1.197.31-2.346.799-3.405 1.434-.375.22-.847.203-1.206-.049l-2.81-2.004a.203.203 0 0 0-.122-.04.207.207 0 0 0-.155.065l-2.428 2.427a.222.222 0 0 0-.024.277l2.028 2.85c.253.35.277.815.057 1.189a13.059 13.059 0 0 0-1.393 3.421 1.101 1.101 0 0 1-.888.814l-3.397.57a.211.211 0 0 0-.179.212v3.429c0 .106.073.195.179.212l3.446.586c.424.073.766.391.88.806a12.9 12.9 0 0 0 1.434 3.404c.22.375.203.847-.049 1.206l-2.004 2.81a.22.22 0 0 0 .024.276l2.428 2.427a.22.22 0 0 0 .155.066.247.247 0 0 0 .122-.041l2.851-2.028c.188-.139.416-.204.636-.204.187 0 .382.049.554.147a13.502 13.502 0 0 0 3.34 1.368c.415.106.733.448.806.88l.57 3.42a.211.211 0 0 0 .212.179h3.43a.211.211 0 0 0 .212-.179l.578-3.42a1.08 1.08 0 0 1 .807-.88 13.037 13.037 0 0 0 3.413-1.417c.375-.22.847-.204 1.197.049l2.827 2.012c.033.024.074.04.122.04a.207.207 0 0 0 .155-.065l2.428-2.427a.222.222 0 0 0 .024-.277l-2.012-2.834a1.102 1.102 0 0 1-.049-1.197 13.026 13.026 0 0 0 1.418-3.413c.106-.415.448-.733.879-.806l3.422-.57a.21.21 0 0 0 .179-.212h.008v-3.428zM19.506 43.909c-4.643 0-8.415-3.771-8.415-8.413s3.772-8.413 8.415-8.413c4.644 0 8.415 3.771 8.415 8.413s-3.771 8.413-8.415 8.413zm0-14.627a6.219 6.219 0 0 0-6.216 6.214 6.219 6.219 0 0 0 6.216 6.214 6.219 6.219 0 0 0 6.216-6.214 6.219 6.219 0 0 0-6.216-6.214zM61.556 18.938l-1.965.328a11.029 11.029 0 0 1-.79 1.906l1.158 1.625c.491.69.409 1.632-.187 2.228l-1.743 1.742c-.328.328-.76.509-1.222.509-.363 0-.714-.111-1.006-.321l-1.621-1.158c-.608.321-1.245.585-1.906.789l-.334 1.965a1.726 1.726 0 0 1-1.707 1.444h-2.469a1.726 1.726 0 0 1-1.707-1.444l-.328-1.965a11.1 11.1 0 0 1-1.848-.76l-1.644 1.169a1.713 1.713 0 0 1-2.222-.187l-1.743-1.742a1.723 1.723 0 0 1-.187-2.228l1.152-1.602a10.72 10.72 0 0 1-.801-1.9l-1.989-.339a1.728 1.728 0 0 1-1.444-1.708v-2.461c0-.848.608-1.567 1.444-1.708l1.942-.327c.199-.661.456-1.298.778-1.912l-1.17-1.643a1.732 1.732 0 0 1 .187-2.228l1.749-1.742c.322-.328.76-.509 1.222-.509.363 0 .714.111 1.006.322l1.609 1.157a10.88 10.88 0 0 1 1.901-.801l.339-1.988c.14-.836.86-1.444 1.708-1.444h2.462c.848 0 1.567.608 1.708 1.444l.327 1.941c.685.205 1.346.48 1.977.813l1.626-1.158a1.717 1.717 0 0 1 2.223.188l1.743 1.742c.602.596.678 1.538.187 2.228l-1.158 1.619c.321.609.585 1.246.789 1.907l1.965.333c.837.14 1.445.859 1.433 1.707v2.462c0 .848-.608 1.567-1.444 1.707zm-.117-4.169a.152.152 0 0 0-.129-.152l-2.456-.415a.776.776 0 0 1-.632-.579 9.366 9.366 0 0 0-1.018-2.45.79.79 0 0 1 .035-.859l1.445-2.029a.158.158 0 0 0-.018-.199l-1.742-1.742a.158.158 0 0 0-.112-.047.167.167 0 0 0-.087.029l-2.018 1.45a.792.792 0 0 1-.86.035 9.49 9.49 0 0 0-2.509-1.029.79.79 0 0 1-.585-.637l-.409-2.438a.152.152 0 0 0-.152-.129h-2.463a.152.152 0 0 0-.152.129l-.421 2.473a.8.8 0 0 1-.579.631 9.28 9.28 0 0 0-2.445 1.029.798.798 0 0 1-.865-.035l-2.018-1.438a.14.14 0 0 0-.088-.029.151.151 0 0 0-.111.046l-1.743 1.743a.159.159 0 0 0-.017.199l1.456 2.046a.782.782 0 0 1 .041.854 9.342 9.342 0 0 0-1 2.456.79.79 0 0 1-.638.584l-2.439.41a.15.15 0 0 0-.128.152v2.461a.15.15 0 0 0 .128.152l2.474.421c.305.053.55.281.632.579.222.86.573 1.684 1.029 2.444a.8.8 0 0 1-.035.866l-1.438 2.017a.158.158 0 0 0 .017.199l1.743 1.742a.157.157 0 0 0 .111.047.18.18 0 0 0 .088-.029l2.047-1.456a.764.764 0 0 1 .456-.146c.135 0 .275.035.398.105a9.68 9.68 0 0 0 2.398.982.786.786 0 0 1 .579.632l.409 2.455a.152.152 0 0 0 .152.129h2.463c.076 0 .14-.053.152-.129l.415-2.455a.777.777 0 0 1 .579-.632 9.37 9.37 0 0 0 2.451-1.017.787.787 0 0 1 .859.035l2.03 1.444a.145.145 0 0 0 .088.029c.029 0 .07-.006.111-.046l1.743-1.743a.16.16 0 0 0 .017-.199l-1.445-2.035a.79.79 0 0 1-.035-.859 9.318 9.318 0 0 0 1.018-2.45.786.786 0 0 1 .632-.579l2.456-.409a.152.152 0 0 0 .129-.152h.006v-2.462zm-12.435 7.268a6.044 6.044 0 0 1-6.041-6.04 6.044 6.044 0 0 1 6.041-6.04 6.045 6.045 0 0 1 6.042 6.04 6.045 6.045 0 0 1-6.042 6.04zm0-10.501a4.464 4.464 0 0 0-4.462 4.461c0 2.462 2 4.461 4.462 4.461a4.464 4.464 0 0 0 4.463-4.461c0-2.462-2-4.461-4.463-4.461z"/>
    </g>
</svg>
