<svg xmlns="http://www.w3.org/2000/svg" width="106" height="108">
    <defs>
        <filter id="a">
            <feFlood flood-color="#0E7086" flood-opacity="1" result="floodOut"/>
            <feComposite in="floodOut" in2="SourceGraphic" operator="atop" result="compOut"/>
            <feBlend in="compOut" in2="SourceGraphic" mode="multiply"/>
        </filter>
    </defs>
    <g fill="#FFF" fill-rule="evenodd" filter="url(#a)">
        <path d="M104.887 65.52c-.26.54-.8.884-1.393.884h-7.369v16.211c0 3.04-2.447 5.512-5.455 5.512H75.443c-1.745 4.501-5.124 14.224-4.753 18.163.043.455-.114.908-.429 1.236a1.543 1.543 0 0 1-1.109.474c-.034 0-.068 0-.105-.003-16.425-1.071-38.045-10.793-41.708-15.113a1.577 1.577 0 0 1-.278-1.551c4.652-12.87 5.178-26.152 1.61-40.6a35.154 35.154 0 0 1-1.7-10.832C26.971 20.656 42.463 5 61.508 5c19.037 0 34.524 15.644 34.536 34.88l.003.018c0 4.545 6.9 21.755 8.654 23.971.371.468.442 1.111.186 1.651zM92.96 39.925c0-.008-.004-.015-.004-.024 0-17.522-14.109-31.78-31.448-31.78-17.34 0-31.448 14.258-31.448 31.777 0 3.409.528 6.758 1.572 9.951.007.02.001.041.007.062.006.018.019.031.024.05 3.644 14.723 3.2 28.306-1.359 41.487 4.287 3.615 22.46 11.83 37.304 13.297.423-6.371 4.809-17.407 5.355-18.765.238-.59.803-.974 1.43-.974H90.67c1.307 0 2.366-1.074 2.366-2.391V64.843c0-.861.692-1.561 1.544-1.561h6.23c-2.978-5.947-7.831-19.108-7.85-23.357z"/>
        <path d="M62.128 13.234l-8.66 8.662a4.425 4.425 0 0 1-3.152 1.305h-8.411l-12.08 12.083a1.484 1.484 0 0 1-2.102 0 1.488 1.488 0 0 1 0-2.103l12.08-12.082v-8.413c0-1.191.464-2.311 1.305-3.153l8.66-8.661a2.965 2.965 0 0 1 3.239-.645 2.966 2.966 0 0 1 1.836 2.748v5.184h5.183c1.207 0 2.285.72 2.747 1.835a2.966 2.966 0 0 1-.645 3.24zM51.87 2.976l-8.659 8.66c-.281.28-.435.653-.435 1.05v5.44L51.87 9.03V2.976zm2.102 8.156l-9.094 9.096h5.438c.391 0 .774-.159 1.05-.435l8.659-8.66-6.053-.001zM36.936 32.539a1.488 1.488 0 0 1 1.612 1.348c.027.299.041.605.041.908 0 5.73-4.661 10.391-10.39 10.391-5.729 0-10.391-4.661-10.391-10.391 0-5.731 4.662-10.393 10.391-10.393.319 0 .635.014.938.042a1.486 1.486 0 1 1-.273 2.961 7.137 7.137 0 0 0-.665-.03c-4.09 0-7.418 3.329-7.419 7.42 0 4.091 3.328 7.418 7.419 7.418 4.089 0 7.417-3.327 7.417-7.418 0-.215-.01-.432-.029-.643a1.487 1.487 0 0 1 1.349-1.613zm7.283-5.675a1.485 1.485 0 0 1 1.928.836 19.204 19.204 0 0 1 1.347 7.095c0 10.641-8.656 19.298-19.295 19.298-10.64 0-19.296-8.657-19.296-19.298 0-10.641 8.657-19.298 19.296-19.298 2.457 0 4.85.456 7.111 1.356a1.487 1.487 0 0 1-1.1 2.763 16.181 16.181 0 0 0-6.011-1.146c-9 0-16.323 7.324-16.323 16.325 0 9.002 7.323 16.325 16.323 16.325s16.322-7.323 16.322-16.325c0-2.072-.383-4.091-1.138-6.002a1.486 1.486 0 0 1 .836-1.929zm-9.053-16.325a25.254 25.254 0 0 0-6.967-.975c-13.91 0-25.226 11.318-25.226 25.231 0 13.913 11.316 25.231 25.226 25.231 13.909 0 25.225-11.318 25.225-25.231 0-2.363-.327-4.704-.971-6.956a1.486 1.486 0 1 1 2.858-.818 28.273 28.273 0 0 1 1.086 7.774C56.397 50.347 43.747 63 28.199 63 12.65 63 0 50.347 0 34.795 0 19.243 12.65 6.59 28.199 6.59c2.646 0 5.266.367 7.787 1.092a1.487 1.487 0 0 1-.82 2.857z"/>
    </g>
</svg>
