<svg xmlns="http://www.w3.org/2000/svg" width="797" height="797">
    <defs>
        <radialGradient id="a">
            <stop offset="0%" stop-color="#FFF" stop-opacity=".2"/>
            <stop offset="100%" stop-color="#FFF" stop-opacity="0"/>
        </radialGradient>
    </defs>
    <path fill="#E4BC4E" fill-rule="evenodd" d="M506.592 271.134C477.394 246.118 439.464 231 398 231c-41.209 0-78.925 14.935-108.05 39.676L149.311 130.037c137.623-137.623 360.755-137.623 498.378 0L506.592 271.134z"/>
    <text x="327" y="177.936" fill="#0E7086" fill-opacity=".2" font-family="Montserrat" font-size="124" font-weight="bold">
        1
    </text>
    <path fill="#D671AF" fill-rule="evenodd" d="M666.964 647.69l-141.64-141.64C550.065 476.925 565 439.209 565 398c0-40.954-14.751-78.458-39.218-107.508l141.182-141.181c137.623 137.623 137.623 360.755 0 498.379z"/>
    <text x="586" y="442.144" fill="#0E7086" fill-opacity=".2" font-family="Montserrat" font-size="124" font-weight="bold">
        2
    </text>
    <path fill="#11D58F" fill-rule="evenodd" d="M506.05 525.324l141.639 141.64c-137.623 137.623-360.755 137.623-498.378 0l141.181-141.182C319.543 550.249 357.046 565 398 565c41.209 0 78.925-14.935 108.05-39.676z"/>
    <text x="317" y="706.936" fill="#0E7086" fill-opacity=".2" font-family="Montserrat" font-size="124" font-weight="bold">
        3
    </text>
    <path fill="#3EAFD4" fill-rule="evenodd" d="M271.134 506.592L130.037 647.69c-137.623-137.624-137.623-360.756 0-498.379L270.676 289.95C245.935 319.075 231 356.791 231 398c0 41.464 15.118 79.394 40.134 108.592z"/>
    <text x="34" y="442.062" fill="#0E7086" fill-opacity=".2" font-family="Montserrat" font-size="124" font-weight="bold">
        4
    </text>
    <path fill="url(#a)" d="M398.5.267C178.931.267.247 178.907.247 398.502c0 219.591 178.684 398.231 398.253 398.231s398.253-178.64 398.253-398.231C796.753 178.907 618.069.267 398.5.267zm259.775 681.792L425.872 431.184l206.734 272.488c-8.927 6.842-18.067 13.344-27.542 19.403L419.665 435.519 576.078 739.97c-9.988 5.184-20.108 10.072-30.562 14.407L412.78 438.752l101.156 327.206c-10.624 3.36-21.548 6.08-32.599 8.522l-75.869-333.774 42.761 339.384c-11.05 1.445-22.231 2.298-33.538 2.764l-16.787-341.469-16.874 341.403c-11.307-.509-22.484-1.401-33.491-2.89l42.8-339.192-75.869 333.456c-11.05-2.463-21.931-5.227-32.555-8.626l101.113-326.784-132.65 315.22c-10.415-4.357-20.486-9.266-30.392-14.472l156.156-303.981-185.055 287.025c-9.479-6.08-18.619-12.604-27.502-19.49l206.268-271.87-231.768 250.279a376.116 376.116 0 0 1-23.76-23.864l250.17-231.769L92.86 631.946c-6.798-8.883-13.262-18.04-19.294-27.519l286.595-184.803L56.775 575.441c-5.184-9.924-10.032-20.043-14.323-30.453l314.479-132.249L30.935 513.577c-3.36-10.624-6.036-21.548-8.46-32.56l332.502-75.59-338.069 42.63c-1.445-11.028-2.294-22.183-2.764-33.49l340.237-16.705-340.319-16.769c.552-11.281 1.527-22.44 2.972-33.447l337.943 42.609-332.076-75.487c2.507-10.985 5.397-21.783 8.796-32.407l325.234 100.582L43.218 251.016c4.334-10.372 9.052-20.508 14.28-30.414l302.663 155.499L74.245 191.746c6.037-9.457 12.409-18.68 19.255-27.541l270.995 205.646-249.534-231.15c7.568-8.265 15.686-16.043 23.929-23.633l230.963 249.43-205.42-270.744c8.888-6.841 18.067-13.218 27.503-19.298l184.206 285.707-155.39-302.494c9.862-5.205 19.934-10.053 30.305-14.388l131.971 313.652L282.337 31.551c10.585-3.399 21.379-6.419 32.39-8.883l75.612 332.311-42.63-337.921c10.963-1.466 22.144-2.293 33.408-2.807l16.787 340.088 16.704-340.214c11.307.47 22.44 1.318 33.452 2.764l-42.592 338.09 75.573-332.524c11.007 2.424 21.932 5.123 32.556 8.461L412.78 356.933 545.051 42.454c10.41 4.291 20.525 9.157 30.474 14.323l-155.86 303.386 184.76-286.599c9.479 6.015 18.658 12.478 27.541 19.298L425.872 364.498l231.725-250.17a398.746 398.746 0 0 1 23.846 23.737L431.225 369.851l271.849-206.264c6.846 8.883 13.348 18.001 19.468 27.476L435.56 376.101l303.899-156.134c5.227 9.923 10.158 20.02 14.493 30.431L438.793 382.943l326.719-101.03c3.399 10.65 6.163 21.553 8.626 32.559l-333.39 75.783 339.131-42.757c1.488 11.028 2.38 22.227 2.89 33.556l-341.342 16.808 341.424 16.77c-.465 11.325-1.358 22.523-2.759 33.595l-339.344-42.8 333.734 75.847c-2.424 11.051-5.188 21.997-8.544 32.664L438.793 412.739l315.581 132.714c-4.335 10.437-9.179 20.573-14.406 30.518L435.56 419.624l287.534 185.399c-6.08 9.475-12.582 18.637-19.424 27.541L431.225 425.83l250.853 232.404c-7.564 8.291-15.511 16.217-23.803 23.825z"/>
</svg>
