<svg xmlns="http://www.w3.org/2000/svg" width="27" height="32">
    <path fill="#E3E4E4" fill-rule="evenodd" d="M25.973 1.101c-.567 0-1.027.48-1.027 1.072v20.258c0 4.094-3.192 7.425-7.116 7.425-3.663 0-6.688-2.903-7.073-6.621 5.053-.554 8.618-5.03 8.618-11.051V8.715c0-1.134-.559-2.355-1.784-2.355h-2.722V1.072C14.869.48 14.409 0 13.842 0c-.568 0-1.028.48-1.028 1.072V6.36H6.56V1.072C6.56.48 6.1 0 5.533 0S4.506.48 4.506 1.072V6.36H1.944C.668 6.36 0 7.568 0 8.762v3.423c0 6.051 3.601 10.542 8.696 11.059C9.092 28.141 13.036 32 17.83 32c5.056 0 9.17-4.292 9.17-9.569V2.173c0-.592-.46-1.072-1.027-1.072zM2.054 12.185V8.762c0-.054.017-.169.04-.258h15.204c.012.071.021.148.022.211v3.47c0 5.279-3.139 8.966-7.633 8.966s-7.633-3.687-7.633-8.966z"/>
</svg>
